<svg id="Capa_1" enable-background="new 0 0 512 512" height="512" viewBox="0 0 512 512" width="512" xmlns="http://www.w3.org/2000/svg"><g><g><path d="m331 15v60c0 8.401-6.599 15-15 15s-15-6.599-15-15v-45h-90v45c0 8.401-6.599 15-15 15s-15-6.599-15-15v-60c0-8.401 6.599-15 15-15h120c8.401 0 15 6.599 15 15z" fill="#3b4a51"/></g><path d="m331 15v60c0 8.401-6.599 15-15 15s-15-6.599-15-15v-45h-45v-30h60c8.401 0 15 6.599 15 15z" fill="#293939"/><path d="m421 135v362c0 8.401-6.599 15-15 15h-300c-8.401 0-15-6.599-15-15v-362z" fill="#97de3d"/><path d="m421 135v362c0 8.401-6.599 15-15 15h-150v-377z" fill="#59c36a"/><path d="m451 75v60h-390v-60c0-8.401 6.599-15 15-15h360c8.401 0 15 6.599 15 15z" fill="#f0f7ff"/><path d="m451 75v60h-195v-75h180c8.401 0 15 6.599 15 15z" fill="#dfe7f4"/><g><path d="m271 195v241c0 8.401-6.599 15-15 15s-15-6.599-15-15v-241c0-8.401 6.599-15 15-15s15 6.599 15 15z" fill="#59c36a"/></g><g><path d="m346 451c-8.291 0-15-6.709-15-15v-241c0-8.291 6.709-15 15-15s15 6.709 15 15v241c0 8.291-6.709 15-15 15z" fill="#00a66c"/></g><g><path d="m166 451c-8.291 0-15-6.709-15-15v-241c0-8.291 6.709-15 15-15s15 6.709 15 15v241c0 8.291-6.709 15-15 15z" fill="#59c36a"/></g><path d="m271 195v241c0 8.401-6.599 15-15 15v-271c8.401 0 15 6.599 15 15z" fill="#00a66c"/><g><path d="m481 135c0 8.401-6.599 15-15 15h-420c-8.401 0-15-6.599-15-15s6.599-15 15-15h420c8.401 0 15 6.599 15 15z" fill="#dfe7f4"/></g><path d="m481 135c0 8.401-6.599 15-15 15h-210v-30h210c8.401 0 15 6.599 15 15z" fill="#c7cfe1"/></g></svg>